<?xml version="1.0" standalone="no"?>
<!DOCTYPE svg PUBLIC "-//W3C//DTD SVG 20010904//EN"
 "http://www.w3.org/TR/2001/REC-SVG-20010904/DTD/svg10.dtd">
<svg version="1.0" xmlns="http://www.w3.org/2000/svg"
 width="210.000000pt" height="178.000000pt" viewBox="0 0 210.000000 178.000000"
 preserveAspectRatio="xMidYMid meet">

<g transform="translate(0.000000,178.000000) scale(0.100000,-0.100000)"
fill="#000000" stroke="none">
<path d="M1615 1696 c-16 -8 -118 -102 -225 -210 l-195 -196 -60 0 -61 0 -69
140 -70 141 -411 -3 -411 -3 -36 -28 c-23 -17 -40 -42 -47 -65 -8 -25 -10
-245 -8 -699 3 -647 3 -662 23 -689 11 -15 36 -35 55 -45 33 -18 78 -19 940
-19 842 0 907 1 939 18 19 9 44 30 55 45 21 28 21 40 24 560 2 500 1 534 -16
567 -23 44 -90 80 -150 80 l-45 0 41 44 c44 48 59 93 47 148 -9 40 -154 193
-202 214 -40 17 -79 17 -118 0z m167 -144 c91 -91 96 -112 46 -168 l-33 -35
-108 109 -108 109 36 31 c56 50 77 44 167 -46z m-147 -152 l110 -110 -220 0
-220 0 110 110 c60 61 110 110 110 110 0 0 50 -49 110 -110z m-675 -40 l70
-140 47 0 48 0 -237 -237 -236 -238 -32 -178 c-29 -160 -31 -180 -17 -194 14
-14 34 -12 194 17 l178 32 400 399 400 399 83 0 c75 0 85 -2 107 -25 l25 -24
0 -516 0 -516 -25 -24 -24 -25 -901 0 -901 0 -24 25 -25 24 0 656 0 656 25 24
24 25 375 0 376 0 70 -140z m353 -492 l-353 -353 -107 108 -108 107 245 245
245 245 215 0 215 0 -352 -352z m-513 -303 c41 -41 72 -76 69 -78 -5 -5 -182
-37 -186 -34 -4 5 31 187 37 187 3 0 39 -34 80 -75z"/>
</g>
</svg>
