<svg id="svg" version="1.1" xmlns="http://www.w3.org/2000/svg" xmlns:xlink="http://www.w3.org/1999/xlink" width="400" height="400" viewBox="0, 0, 400,400"><g id="svgg"><path id="path0" d="M0.000 200.000 L 0.000 400.000 200.000 400.000 L 400.000 400.000 400.000 200.000 L 400.000 0.000 200.000 0.000 L 0.000 0.000 0.000 200.000 M314.895 174.820 C 317.285 175.483,317.200 174.291,317.200 207.294 C 317.200 230.519,317.315 237.955,317.680 238.320 C 318.045 238.685,325.481 238.800,348.706 238.800 C 368.542 238.800,379.518 238.942,380.009 239.205 C 381.451 239.977,381.596 242.049,381.596 262.000 C 381.596 281.951,381.451 284.023,380.009 284.795 C 379.518 285.058,368.542 285.200,348.706 285.200 C 325.481 285.200,318.045 285.315,317.680 285.680 C 317.313 286.047,317.200 295.259,317.200 324.706 C 317.200 366.294,317.301 364.512,314.895 365.180 C 312.865 365.744,275.135 365.744,273.105 365.180 C 270.699 364.512,270.800 366.294,270.800 324.706 C 270.800 295.259,270.687 286.047,270.320 285.680 C 269.954 285.314,261.185 285.200,233.294 285.200 C 193.852 285.200,195.487 285.298,194.820 282.895 C 194.256 280.865,194.256 243.135,194.820 241.105 C 195.487 238.702,193.852 238.800,233.294 238.800 C 261.185 238.800,269.954 238.686,270.320 238.320 C 270.685 237.955,270.800 230.497,270.800 207.196 C 270.800 174.050,270.701 175.512,273.000 174.826 C 274.733 174.310,313.037 174.304,314.895 174.820 " stroke="none" fill="#fc6c04" fill-rule="evenodd"></path><path id="path1" d="M277.100 177.429 L 276.000 178.026 276.000 208.229 C 276.000 241.218,276.081 239.999,273.743 242.052 C 271.425 244.086,273.171 244.000,234.230 244.000 L 198.021 244.000 197.410 245.180 C 196.894 246.179,196.800 248.763,196.800 262.000 C 196.800 275.237,196.894 277.821,197.410 278.820 L 198.021 280.000 234.230 280.000 C 273.171 280.000,271.425 279.914,273.743 281.948 C 276.114 284.030,276.000 281.915,276.000 323.774 L 276.000 361.979 277.180 362.590 C 278.179 363.106,280.763 363.200,294.000 363.200 C 307.237 363.200,309.821 363.106,310.820 362.590 L 312.000 361.979 312.000 323.774 C 312.000 281.915,311.886 284.030,314.257 281.948 C 316.557 279.930,315.351 280.000,347.770 280.000 L 377.979 280.000 378.590 278.820 C 379.106 277.821,379.200 275.237,379.200 262.000 C 379.200 248.763,379.106 246.179,378.590 245.180 L 377.979 244.000 347.770 244.000 C 315.351 244.000,316.557 244.070,314.257 242.052 C 311.919 239.999,312.000 241.218,312.000 208.226 L 312.000 178.021 310.820 177.410 C 309.082 176.511,278.760 176.528,277.100 177.429 " stroke="none" fill="#040404" fill-rule="evenodd"></path><path id="path2" d="M275.921 175.676 C 275.107 175.893,273.982 176.495,273.421 177.016 L 272.400 177.962 272.400 208.059 L 272.400 238.156 271.325 239.278 L 270.250 240.400 234.106 240.400 L 197.962 240.400 197.026 241.410 C 195.361 243.206,195.200 245.022,195.200 262.000 C 195.200 278.978,195.361 280.794,197.026 282.590 L 197.962 283.600 234.106 283.600 L 270.250 283.600 271.325 284.722 L 272.400 285.844 272.400 323.941 L 272.400 362.038 273.410 362.974 C 275.206 364.639,277.022 364.800,294.000 364.800 C 310.978 364.800,312.794 364.639,314.590 362.974 L 315.600 362.038 315.600 323.941 L 315.600 285.844 316.675 284.722 L 317.750 283.600 347.894 283.600 L 378.038 283.600 378.974 282.590 C 380.639 280.794,380.800 278.978,380.800 262.000 C 380.800 245.022,380.639 243.206,378.974 241.410 L 378.038 240.400 347.894 240.400 L 317.750 240.400 316.675 239.278 L 315.600 238.156 315.600 208.059 L 315.600 177.962 314.590 177.026 C 314.035 176.511,312.785 175.890,311.813 175.645 C 309.573 175.081,278.056 175.108,275.921 175.676 M310.820 177.410 L 312.000 178.021 312.000 208.226 C 312.000 241.218,311.919 239.999,314.257 242.052 C 316.557 244.070,315.351 244.000,347.770 244.000 L 377.979 244.000 378.590 245.180 C 379.106 246.179,379.200 248.763,379.200 262.000 C 379.200 275.237,379.106 277.821,378.590 278.820 L 377.979 280.000 347.770 280.000 C 315.351 280.000,316.557 279.930,314.257 281.948 C 311.886 284.030,312.000 281.915,312.000 323.774 L 312.000 361.979 310.820 362.590 C 309.821 363.106,307.237 363.200,294.000 363.200 C 280.763 363.200,278.179 363.106,277.180 362.590 L 276.000 361.979 276.000 323.774 C 276.000 281.915,276.114 284.030,273.743 281.948 C 271.425 279.914,273.171 280.000,234.230 280.000 L 198.021 280.000 197.410 278.820 C 196.894 277.821,196.800 275.237,196.800 262.000 C 196.800 248.763,196.894 246.179,197.410 245.180 L 198.021 244.000 234.230 244.000 C 273.171 244.000,271.425 244.086,273.743 242.052 C 276.081 239.999,276.000 241.218,276.000 208.229 L 276.000 178.026 277.100 177.429 C 278.760 176.528,309.082 176.511,310.820 177.410 " stroke="none" fill="#7c3404" fill-rule="evenodd"></path><path id="path3" d="M273.000 174.826 C 270.701 175.512,270.800 174.050,270.800 207.196 C 270.800 230.497,270.685 237.955,270.320 238.320 C 269.954 238.686,261.185 238.800,233.294 238.800 C 193.852 238.800,195.487 238.702,194.820 241.105 C 194.256 243.135,194.256 280.865,194.820 282.895 C 195.487 285.298,193.852 285.200,233.294 285.200 C 261.185 285.200,269.954 285.314,270.320 285.680 C 270.687 286.047,270.800 295.259,270.800 324.706 C 270.800 366.294,270.699 364.512,273.105 365.180 C 275.135 365.744,312.865 365.744,314.895 365.180 C 317.301 364.512,317.200 366.294,317.200 324.706 C 317.200 295.259,317.313 286.047,317.680 285.680 C 318.045 285.315,325.481 285.200,348.706 285.200 C 368.542 285.200,379.518 285.058,380.009 284.795 C 381.451 284.023,381.596 281.951,381.596 262.000 C 381.596 242.049,381.451 239.977,380.009 239.205 C 379.518 238.942,368.542 238.800,348.706 238.800 C 325.481 238.800,318.045 238.685,317.680 238.320 C 317.315 237.955,317.200 230.519,317.200 207.294 C 317.200 174.291,317.285 175.483,314.895 174.820 C 313.037 174.304,274.733 174.310,273.000 174.826 M311.813 175.645 C 312.785 175.890,314.035 176.511,314.590 177.026 L 315.600 177.962 315.600 208.059 L 315.600 238.156 316.675 239.278 L 317.750 240.400 347.894 240.400 L 378.038 240.400 378.974 241.410 C 380.639 243.206,380.800 245.022,380.800 262.000 C 380.800 278.978,380.639 280.794,378.974 282.590 L 378.038 283.600 347.894 283.600 L 317.750 283.600 316.675 284.722 L 315.600 285.844 315.600 323.941 L 315.600 362.038 314.590 362.974 C 312.794 364.639,310.978 364.800,294.000 364.800 C 277.022 364.800,275.206 364.639,273.410 362.974 L 272.400 362.038 272.400 323.941 L 272.400 285.844 271.325 284.722 L 270.250 283.600 234.106 283.600 L 197.962 283.600 197.026 282.590 C 195.361 280.794,195.200 278.978,195.200 262.000 C 195.200 245.022,195.361 243.206,197.026 241.410 L 197.962 240.400 234.106 240.400 L 270.250 240.400 271.325 239.278 L 272.400 238.156 272.400 208.059 L 272.400 177.962 273.421 177.016 C 273.982 176.495,275.107 175.893,275.921 175.676 C 278.056 175.108,309.573 175.081,311.813 175.645 " stroke="none" fill="#dc7004" fill-rule="evenodd"></path><path id="path4" d="M273.000 174.826 C 270.701 175.512,270.800 174.050,270.800 207.196 C 270.800 230.497,270.685 237.955,270.320 238.320 C 269.954 238.686,261.185 238.800,233.294 238.800 C 193.852 238.800,195.487 238.702,194.820 241.105 C 194.256 243.135,194.256 280.865,194.820 282.895 C 195.487 285.298,193.852 285.200,233.294 285.200 C 261.185 285.200,269.954 285.314,270.320 285.680 C 270.687 286.047,270.800 295.259,270.800 324.706 C 270.800 366.294,270.699 364.512,273.105 365.180 C 275.135 365.744,312.865 365.744,314.895 365.180 C 317.301 364.512,317.200 366.294,317.200 324.706 C 317.200 295.259,317.313 286.047,317.680 285.680 C 318.045 285.315,325.481 285.200,348.706 285.200 C 368.542 285.200,379.518 285.058,380.009 284.795 C 381.451 284.023,381.596 281.951,381.596 262.000 C 381.596 242.049,381.451 239.977,380.009 239.205 C 379.518 238.942,368.542 238.800,348.706 238.800 C 325.481 238.800,318.045 238.685,317.680 238.320 C 317.315 237.955,317.200 230.519,317.200 207.294 C 317.200 174.291,317.285 175.483,314.895 174.820 C 313.037 174.304,274.733 174.310,273.000 174.826 M311.813 175.645 C 312.785 175.890,314.035 176.511,314.590 177.026 L 315.600 177.962 315.600 208.059 L 315.600 238.156 316.675 239.278 L 317.750 240.400 347.894 240.400 L 378.038 240.400 378.974 241.410 C 380.639 243.206,380.800 245.022,380.800 262.000 C 380.800 278.978,380.639 280.794,378.974 282.590 L 378.038 283.600 347.894 283.600 L 317.750 283.600 316.675 284.722 L 315.600 285.844 315.600 323.941 L 315.600 362.038 314.590 362.974 C 312.794 364.639,310.978 364.800,294.000 364.800 C 277.022 364.800,275.206 364.639,273.410 362.974 L 272.400 362.038 272.400 323.941 L 272.400 285.844 271.325 284.722 L 270.250 283.600 234.106 283.600 L 197.962 283.600 197.026 282.590 C 195.361 280.794,195.200 278.978,195.200 262.000 C 195.200 245.022,195.361 243.206,197.026 241.410 L 197.962 240.400 234.106 240.400 L 270.250 240.400 271.325 239.278 L 272.400 238.156 272.400 208.059 L 272.400 177.962 273.421 177.016 C 273.982 176.495,275.107 175.893,275.921 175.676 C 278.056 175.108,309.573 175.081,311.813 175.645 " stroke="none" fill="#dc7004" fill-rule="evenodd"></path></g></svg>