<?xml version="1.0" encoding="UTF-8" standalone="no" ?>
<!DOCTYPE svg PUBLIC "-//W3C//DTD SVG 1.1//EN" "http://www.w3.org/Graphics/SVG/1.1/DTD/svg11.dtd">
<svg xmlns="http://www.w3.org/2000/svg" xmlns:xlink="http://www.w3.org/1999/xlink" version="1.1" width="500" height="500" viewBox="0 0 500 500" xml:space="preserve">
<desc>Created with Fabric.js 4.6.0</desc>
<defs>
</defs>
<g transform="matrix(17.84 0 0 5.15 185.13 141.84)" id="RCbUoxzlEtEfifb6mcFpt"  >
<path style="stroke: rgb(0,0,0); stroke-width: 1; stroke-dasharray: none; stroke-linecap: butt; stroke-dashoffset: 0; stroke-linejoin: miter; stroke-miterlimit: 4; fill: rgb(255,255,255); fill-rule: nonzero; opacity: 1;" vector-effect="non-scaling-stroke"  transform=" translate(0, 0)" d="M -9.88287 -9.88287 L 9.88287 -9.88287 L 9.88287 9.88287 L -9.88287 9.88287 z" stroke-linecap="round" />
</g>
<g transform="matrix(1.56 0 0 0.71 86.64 291.48)" id="qWM9PjviX3K3jW42c2NXX"  >
<path style="stroke: rgb(0,0,0); stroke-width: 1; stroke-dasharray: none; stroke-linecap: butt; stroke-dashoffset: 0; stroke-linejoin: miter; stroke-miterlimit: 4; fill: rgb(243,243,243); fill-rule: nonzero; opacity: 1;" vector-effect="non-scaling-stroke"  transform=" translate(0, 0)" d="M -50 -50 L 50 -50 L 50 50 L -50 50 z" stroke-linecap="round" />
</g>
<g transform="matrix(2.85 0 0 0.97 219.15 445.25)" id="mv0lC48zfRDkbI740uJKR"  >
<path style="stroke: rgb(0,0,0); stroke-width: 1; stroke-dasharray: none; stroke-linecap: butt; stroke-dashoffset: 0; stroke-linejoin: miter; stroke-miterlimit: 4; fill: rgb(245,245,245); fill-rule: nonzero; opacity: 1;" vector-effect="non-scaling-stroke"  transform=" translate(0, 0)" d="M -49.99992 -49.99992 L 49.99992 -49.99992 L 49.99992 49.99992 L -49.99992 49.99992 z" stroke-linecap="round" />
</g>
<g transform="matrix(11.39 0 0 11.39 86.64 198.41)" id="I4mhfs-IsNICRwvhJHxaI"  >
<path style="stroke: rgb(0,0,0); stroke-width: 1; stroke-dasharray: none; stroke-linecap: butt; stroke-dashoffset: 0; stroke-linejoin: miter; stroke-miterlimit: 4; fill: rgb(255,255,255); fill-opacity: 0; fill-rule: nonzero; opacity: 1;" vector-effect="non-scaling-stroke"  transform=" translate(0, 0)" d="M 0 0" stroke-linecap="round" />
</g>
<g transform="matrix(11.39 0 0 11.39 275.51 291.87)" id="VZCrd_FoDb1Co28xg4Hxi"  >
<path style="stroke: rgb(0,0,0); stroke-width: 1; stroke-dasharray: none; stroke-linecap: butt; stroke-dashoffset: 0; stroke-linejoin: miter; stroke-miterlimit: 4; fill: rgb(255,255,255); fill-opacity: 0; fill-rule: nonzero; opacity: 1;" vector-effect="non-scaling-stroke"  transform=" translate(0, 0)" d="M 0 -8.70848 L 0 8.70849" stroke-linecap="round" />
</g>
<g transform="matrix(11.39 0 0 11.39 92.33 221.56)" id="pIwmcwUsZkvik0UuFvoz6"  >
<path style="stroke: rgb(0,0,0); stroke-width: 1; stroke-dasharray: none; stroke-linecap: butt; stroke-dashoffset: 0; stroke-linejoin: miter; stroke-miterlimit: 4; fill: rgb(255,255,255); fill-opacity: 0; fill-rule: nonzero; opacity: 1;" vector-effect="non-scaling-stroke"  transform=" translate(0, 0)" d="M 0 -2.53328 L 0 2.53328" stroke-linecap="round" />
</g>
<g transform="matrix(0.95 0 0 0.95 374.3 302.09)" id="YC39pkq9vOHPyMvV74uCk"  >
<path style="stroke: rgb(0,0,0); stroke-width: 1; stroke-dasharray: none; stroke-linecap: butt; stroke-dashoffset: 0; stroke-linejoin: miter; stroke-miterlimit: 4; fill: rgb(255,255,255); fill-opacity: 0; fill-rule: nonzero; opacity: 1;" vector-effect="non-scaling-stroke"  transform=" translate(0, 0)" d="M -38.79941 -50.04202 L 38.799420000000005 -48.54202 L 30.314410000000002 50.04201 L -30.746699999999997 50.04201 z" stroke-linecap="round" />
</g>
<g transform="matrix(1.51 0 0 1.51 375.25 255.48)" id="1K45u2avdcVEpNyw9jp7q"  >
<path style="stroke: rgb(0,0,0); stroke-width: 1; stroke-dasharray: none; stroke-linecap: butt; stroke-dashoffset: 0; stroke-linejoin: miter; stroke-miterlimit: 4; fill: rgb(255,255,255); fill-opacity: 0; fill-rule: nonzero; opacity: 1;" vector-effect="non-scaling-stroke"  transform=" translate(0, 0)" d="M -49.41435 -0.25 L 49.41435 0.25" stroke-linecap="round" />
</g>
<g transform="matrix(1.93 0 0 1.93 377.01 235.37)" id="J9P6np9riErHiQHixuIhE"  >
<path style="stroke: rgb(0,0,0); stroke-width: 1; stroke-dasharray: none; stroke-linecap: butt; stroke-dashoffset: 0; stroke-linejoin: miter; stroke-miterlimit: 4; fill: rgb(255,255,255); fill-opacity: 0; fill-rule: nonzero; opacity: 1;" vector-effect="non-scaling-stroke"  transform=" translate(0, 0)" d="M 0 9.98727 L 0 -9.987260000000001" stroke-linecap="round" />
</g>
</svg>