<?xml version="1.0" standalone="no"?>
<!DOCTYPE svg PUBLIC "-//W3C//DTD SVG 20010904//EN"
 "http://www.w3.org/TR/2001/REC-SVG-20010904/DTD/svg10.dtd">
<svg version="1.0" xmlns="http://www.w3.org/2000/svg"
 width="256.000000pt" height="256.000000pt" viewBox="0 0 256.000000 256.000000"
 preserveAspectRatio="xMidYMid meet">

<g transform="translate(0.000000,256.000000) scale(0.100000,-0.100000)"
fill="#000000" stroke="none">
<path d="M1085 2545 c-396 -58 -757 -319 -942 -681 -322 -629 -76 -1390 553
-1711 586 -300 1284 -112 1648 442 248 377 272 860 63 1269 -250 490 -776 761
-1322 681z m325 -95 c401 -48 745 -293 920 -654 247 -511 96 -1117 -363 -1458
-228 -169 -526 -249 -812 -219 -146 16 -262 49 -391 111 -602 292 -839 1031
-518 1619 227 416 694 657 1164 601z"/>
<path d="M1057 2280 c-94 -20 -202 -65 -236 -99 -17 -17 -21 -33 -21 -84 0
-39 5 -71 14 -83 16 -21 9 -23 151 40 248 109 502 44 574 -149 28 -76 37 -180
21 -255 -35 -166 -161 -260 -348 -260 -56 0 -66 -3 -89 -27 l-26 -28 6 -229
c4 -138 11 -234 17 -240 18 -18 147 -20 174 -3 23 15 24 22 31 190 l7 174 77
15 c163 32 280 121 346 260 41 87 55 152 55 263 0 331 -219 536 -570 534 -52
0 -135 -9 -183 -19z"/>
<path d="M1145 665 c-22 -8 -41 -15 -41 -15 -1 0 -8 -15 -15 -32 -8 -19 -14
-66 -14 -109 1 -124 34 -153 164 -147 65 3 76 7 96 30 42 49 45 203 4 246 -37
40 -124 52 -194 27z"/>
</g>
</svg>
