<?xml version="1.0" encoding="UTF-8" standalone="no" ?>
<!DOCTYPE svg PUBLIC "-//W3C//DTD SVG 1.1//EN" "http://www.w3.org/Graphics/SVG/1.1/DTD/svg11.dtd">
<svg xmlns="http://www.w3.org/2000/svg" xmlns:xlink="http://www.w3.org/1999/xlink" version="1.1" width="500" height="500" viewBox="0 0 500 500" xml:space="preserve">
<desc>Created with Fabric.js 4.6.0</desc>
<defs>
</defs>
<g transform="matrix(17.84 0 0 5.15 185.13 141.84)" id="RCbUoxzlEtEfifb6mcFpt"  >
<path style="stroke: rgb(0,0,0); stroke-width: 1; stroke-dasharray: none; stroke-linecap: butt; stroke-dashoffset: 0; stroke-linejoin: miter; stroke-miterlimit: 4; fill: rgb(255,255,255); fill-rule: nonzero; opacity: 1;" vector-effect="non-scaling-stroke"  transform=" translate(0, 0)" d="M -9.88287 -9.88287 L 9.88287 -9.88287 L 9.88287 9.88287 L -9.88287 9.88287 z" stroke-linecap="round" />
</g>
<g transform="matrix(1.56 0 0 0.71 86.64 291.48)" id="qWM9PjviX3K3jW42c2NXX"  >
<path style="stroke: rgb(0,0,0); stroke-width: 1; stroke-dasharray: none; stroke-linecap: butt; stroke-dashoffset: 0; stroke-linejoin: miter; stroke-miterlimit: 4; fill: rgb(243,243,243); fill-rule: nonzero; opacity: 1;" vector-effect="non-scaling-stroke"  transform=" translate(0, 0)" d="M -50 -50 L 50 -50 L 50 50 L -50 50 z" stroke-linecap="round" />
</g>
<g transform="matrix(2.85 0 0 0.97 219.15 445.25)" id="mv0lC48zfRDkbI740uJKR"  >
<path style="stroke: rgb(0,0,0); stroke-width: 1; stroke-dasharray: none; stroke-linecap: butt; stroke-dashoffset: 0; stroke-linejoin: miter; stroke-miterlimit: 4; fill: rgb(245,245,245); fill-rule: nonzero; opacity: 1;" vector-effect="non-scaling-stroke"  transform=" translate(0, 0)" d="M -49.99992 -49.99992 L 49.99992 -49.99992 L 49.99992 49.99992 L -49.99992 49.99992 z" stroke-linecap="round" />
</g>
<g transform="matrix(11.39 0 0 11.39 86.64 198.41)" id="I4mhfs-IsNICRwvhJHxaI"  >
<path style="stroke: rgb(0,0,0); stroke-width: 1; stroke-dasharray: none; stroke-linecap: butt; stroke-dashoffset: 0; stroke-linejoin: miter; stroke-miterlimit: 4; fill: rgb(255,255,255); fill-opacity: 0; fill-rule: nonzero; opacity: 1;" vector-effect="non-scaling-stroke"  transform=" translate(0, 0)" d="M 0 0" stroke-linecap="round" />
</g>
<g transform="matrix(11.39 0 0 11.39 275.51 291.87)" id="VZCrd_FoDb1Co28xg4Hxi"  >
<path style="stroke: rgb(0,0,0); stroke-width: 1; stroke-dasharray: none; stroke-linecap: butt; stroke-dashoffset: 0; stroke-linejoin: miter; stroke-miterlimit: 4; fill: rgb(255,255,255); fill-opacity: 0; fill-rule: nonzero; opacity: 1;" vector-effect="non-scaling-stroke"  transform=" translate(0, 0)" d="M 0 -8.70848 L 0 8.70849" stroke-linecap="round" />
</g>
<g transform="matrix(11.39 0 0 11.39 92.33 221.56)" id="pIwmcwUsZkvik0UuFvoz6"  >
<path style="stroke: rgb(0,0,0); stroke-width: 1; stroke-dasharray: none; stroke-linecap: butt; stroke-dashoffset: 0; stroke-linejoin: miter; stroke-miterlimit: 4; fill: rgb(255,255,255); fill-opacity: 0; fill-rule: nonzero; opacity: 1;" vector-effect="non-scaling-stroke"  transform=" translate(0, 0)" d="M 0 -2.53328 L 0 2.53328" stroke-linecap="round" />
</g>
<g transform="matrix(5.3 0 0 -0.47 413.4 213.26)" id="LEvK9yb3Q9PONFqAV404S"  >
<path style="stroke: rgb(0,0,0); stroke-width: 1; stroke-dasharray: none; stroke-linecap: butt; stroke-dashoffset: 0; stroke-linejoin: miter; stroke-miterlimit: 4; fill: rgb(0,0,0); fill-rule: nonzero; opacity: 1;" vector-effect="non-scaling-stroke"  transform=" translate(0, 0)" d="M -8.05271 -8.05271 L 8.05271 -8.05271 L 8.05271 8.05271 L -8.05271 8.05271 z" stroke-linecap="round" />
</g>
<g transform="matrix(0.49 0 0 5.56 413.4 213.26)" id="VRnNd_YOwN5nqM0ApNbVY"  >
<path style="stroke: rgb(0,0,0); stroke-width: 1; stroke-dasharray: none; stroke-linecap: butt; stroke-dashoffset: 0; stroke-linejoin: miter; stroke-miterlimit: 4; fill: rgb(0,0,0); fill-rule: nonzero; opacity: 1;" vector-effect="non-scaling-stroke"  transform=" translate(0, 0)" d="M -8.05271 -8.05271 L 8.05271 -8.05271 L 8.05271 8.05271 L -8.05271 8.05271 z" stroke-linecap="round" />
</g>
</svg>