<?xml version="1.0" standalone="no"?>
<!DOCTYPE svg PUBLIC "-//W3C//DTD SVG 20010904//EN"
 "http://www.w3.org/TR/2001/REC-SVG-20010904/DTD/svg10.dtd">
<svg version="1.0" xmlns="http://www.w3.org/2000/svg"
 width="210.000000pt" height="178.000000pt" viewBox="0 0 210.000000 178.000000"
 preserveAspectRatio="xMidYMid meet">

<g transform="translate(0.000000,178.000000) scale(0.100000,-0.100000)"
fill="#000000" stroke="none">
<path d="M100 1551 c-19 -10 -44 -30 -55 -45 -20 -27 -20 -39 -20 -711 0 -672
0 -684 20 -711 11 -15 36 -35 55 -45 33 -18 78 -19 940 -19 842 0 907 1 939
18 19 9 44 30 55 45 21 28 21 40 24 560 3 605 6 581 -78 625 -44 22 -48 22
-475 22 l-431 0 -69 140 -69 140 -401 0 c-371 0 -403 -1 -435 -19z m860 -191
l70 -140 318 0 c174 -1 379 -1 454 0 134 1 139 0 163 -24 l25 -25 0 -516 0
-516 -25 -24 -24 -25 -901 0 -901 0 -24 25 -25 24 0 656 0 656 25 24 24 25
375 0 376 0 70 -140z"/>
<path d="M717 734 c-4 -4 -7 -29 -7 -56 l0 -48 289 0 c158 0 316 -3 350 -6
l61 -7 0 57 0 56 -322 0 c-178 0 -332 3 -343 6 -11 3 -24 2 -28 -2z"/>
</g>
</svg>
