<?xml version="1.0" standalone="no"?>
<!DOCTYPE svg PUBLIC "-//W3C//DTD SVG 20010904//EN"
 "http://www.w3.org/TR/2001/REC-SVG-20010904/DTD/svg10.dtd">
<svg version="1.0" xmlns="http://www.w3.org/2000/svg"
 width="173.000000pt" height="178.000000pt" viewBox="0 0 173.000000 178.000000"
 preserveAspectRatio="xMidYMid meet">

<g transform="translate(0.000000,178.000000) scale(0.100000,-0.100000)"
fill="#000000" stroke="none">
<path d="M1434 1627 c-12 -7 -157 -149 -322 -317 l-300 -306 -22 -118 c-15
-78 -19 -121 -13 -127 7 -7 50 -3 128 11 l118 21 306 311 c168 170 310 318
315 328 19 40 -2 85 -68 149 -68 64 -97 74 -142 48z m113 -90 c29 -30 53 -61
53 -70 0 -9 -10 -28 -22 -42 l-23 -26 -69 70 -70 70 24 26 c13 14 30 25 38 25
8 0 39 -24 69 -53z m-94 -105 l67 -67 -255 -255 -255 -255 -70 70 -70 70 252
252 c139 139 255 253 258 253 3 0 36 -30 73 -68z m-496 -598 c-5 -5 -121 -24
-124 -20 -3 2 1 32 8 66 l12 61 53 -52 c30 -29 52 -54 51 -55z"/>
<path d="M192 1604 c-18 -9 -43 -31 -55 -48 -21 -29 -22 -43 -25 -243 -3 -237
2 -263 62 -306 25 -17 48 -23 114 -26 l82 -3 0 -118 0 -118 -83 -3 c-65 -3
-88 -9 -113 -26 -57 -41 -64 -70 -64 -278 0 -208 7 -237 64 -278 29 -21 43
-22 228 -25 169 -3 203 -1 233 14 57 27 79 67 84 151 l3 73 133 0 133 0 3 -73
c3 -54 10 -80 26 -103 41 -57 70 -64 278 -64 208 0 237 7 278 64 21 30 22 40
22 241 0 201 -1 211 -22 241 -41 57 -70 64 -278 64 -208 0 -237 -7 -278 -64
-18 -25 -23 -48 -25 -118 l-4 -88 -134 0 -134 0 0 76 c0 138 -44 187 -172 193
l-78 3 0 118 0 118 78 3 c60 3 84 9 108 26 58 42 64 69 64 293 0 224 -6 251
-64 293 -29 21 -42 22 -231 25 -169 2 -205 0 -233 -14z m412 -100 c24 -23 24
-385 0 -408 -23 -24 -355 -24 -378 0 -24 23 -24 385 0 408 13 13 45 16 189 16
144 0 176 -3 189 -16z m0 -880 c24 -23 24 -355 0 -378 -23 -24 -355 -24 -378
0 -24 23 -24 355 0 378 23 24 355 24 378 0z m880 0 c24 -23 24 -355 0 -378
-23 -24 -355 -24 -378 0 -24 23 -24 355 0 378 23 24 355 24 378 0z"/>
</g>
</svg>
