<?xml version="1.0" standalone="no"?>
<!DOCTYPE svg PUBLIC "-//W3C//DTD SVG 20010904//EN"
 "http://www.w3.org/TR/2001/REC-SVG-20010904/DTD/svg10.dtd">
<svg version="1.0" xmlns="http://www.w3.org/2000/svg"
 width="300.000000pt" height="300.000000pt" viewBox="0 0 300.000000 300.000000"
 preserveAspectRatio="xMidYMid meet">

<g transform="translate(0.000000,300.000000) scale(0.100000,-0.100000)"
fill="#000000" stroke="none">
<path d="M2092 2364 c-23 -14 -41 -28 -38 -32 19 -34 226 -431 226 -435 0 -2
-71 26 -157 63 -310 133 -771 296 -984 349 -207 51 -426 66 -534 37 -107 -28
-194 -91 -233 -168 -43 -88 -55 -161 -49 -313 8 -194 50 -396 158 -751 58
-194 304 -899 318 -916 6 -7 93 21 106 33 3 3 -49 157 -115 343 -174 488 -265
788 -322 1061 -17 86 -22 144 -23 265 0 143 2 159 23 203 30 60 79 100 149
122 79 25 287 16 438 -19 253 -59 796 -253 1140 -407 l49 -22 -94 -37 c-52
-20 -152 -56 -222 -80 -141 -49 -135 -42 -99 -122 l16 -36 165 59 c310 111
449 169 470 194 10 12 -313 629 -332 633 -7 1 -32 -9 -56 -24z"/>
</g>
</svg>
