<?xml version="1.0" standalone="no"?>
<!DOCTYPE svg PUBLIC "-//W3C//DTD SVG 20010904//EN"
 "http://www.w3.org/TR/2001/REC-SVG-20010904/DTD/svg10.dtd">
<svg version="1.0" xmlns="http://www.w3.org/2000/svg"
 width="300.000000pt" height="300.000000pt" viewBox="0 0 300.000000 300.000000"
 preserveAspectRatio="xMidYMid meet">

<g transform="translate(0.000000,300.000000) scale(0.100000,-0.100000)"
fill="#000000" stroke="none">
<path d="M764 2243 c-43 -82 -117 -222 -165 -313 -49 -94 -83 -169 -79 -175
21 -25 161 -83 470 -194 l165 -59 16 36 c36 80 42 73 -99 122 -70 24 -170 60
-222 80 l-94 37 49 22 c344 154 887 348 1140 407 151 35 359 44 438 19 70 -22
119 -62 149 -122 21 -44 23 -60 23 -203 -1 -121 -6 -179 -23 -265 -57 -273
-148 -573 -322 -1061 -66 -186 -118 -340 -115 -343 13 -12 100 -40 106 -33 14
17 260 722 318 916 108 355 150 557 158 751 6 152 -6 225 -49 313 -39 77 -126
140 -233 168 -108 29 -327 14 -534 -37 -213 -53 -674 -216 -983 -349 -87 -37
-158 -65 -158 -63 0 4 207 402 227 435 4 8 -78 58 -95 58 -6 0 -46 -66 -88
-147z"/>
</g>
</svg>
